<?xml version="1.0" standalone="no"?>
<!DOCTYPE svg PUBLIC "-//W3C//DTD SVG 20010904//EN"
 "http://www.w3.org/TR/2001/REC-SVG-20010904/DTD/svg10.dtd">
<svg version="1.0" xmlns="http://www.w3.org/2000/svg"
 width="220.000000pt" height="220.000000pt" viewBox="0 0 220.000000 220.000000"
 preserveAspectRatio="xMidYMid meet">
<metadata>
Created by potrace 1.14, written by Peter Selinger 2001-2017
</metadata>
<g transform="translate(0.000000,220.000000) scale(0.100000,-0.100000)"
fill="#000000" stroke="none">
<path d="M350 1080 l0 -710 770 0 c424 0 770 3 771 8 3 26 3 1380 0 1395 -3
16 -48 17 -772 17 l-769 0 0 -710z m1500 -1 l0 -669 -730 0 -730 0 0 669 0
670 730 0 730 0 0 -670z"/>
<path d="M829 1429 c-5 -3 -8 -151 -7 -354 l3 -349 170 2 c220 2 280 16 366
83 76 60 120 155 121 264 2 169 -97 299 -258 342 -56 14 -375 24 -395 12z
m366 -72 c209 -56 285 -316 139 -474 -64 -69 -137 -90 -314 -89 l-125 1 -1
280 c0 154 1 283 3 287 4 9 265 4 298 -5z"/>
<path d="M1054 1245 c-24 -19 -29 -31 -29 -68 0 -54 15 -73 81 -102 57 -25 79
-54 68 -88 -9 -29 -22 -37 -62 -37 -28 0 -36 5 -45 30 -11 30 -22 35 -50 24
-12 -4 -13 -11 -6 -34 30 -84 139 -102 202 -32 11 12 18 36 19 66 1 57 -21 85
-93 115 -59 26 -74 49 -53 79 19 27 44 28 75 3 21 -16 27 -17 42 -6 37 27 -8
67 -79 71 -30 1 -49 -4 -70 -21z"/>
</g>
</svg>
